<svg id="visual" viewBox="0 0 900 600" width="900" height="600" xmlns="http://www.w3.org/2000/svg" xmlns:xlink="http://www.w3.org/1999/xlink" version="1.1"><rect x="0" y="0" width="900" height="600" fill="#001220"></rect><path d="M0 411L21.5 417.5C43 424 86 437 128.8 445.8C171.7 454.7 214.3 459.3 257.2 451.3C300 443.3 343 422.7 385.8 409.3C428.7 396 471.3 390 514.2 398.3C557 406.7 600 429.3 642.8 425.2C685.7 421 728.3 390 771.2 388.7C814 387.3 857 415.7 878.5 429.8L900 444L900 0L878.5 0C857 0 814 0 771.2 0C728.3 0 685.7 0 642.8 0C600 0 557 0 514.2 0C471.3 0 428.7 0 385.8 0C343 0 300 0 257.2 0C214.3 0 171.7 0 128.8 0C86 0 43 0 21.5 0L0 0Z" fill="#fa7268"></path><path d="M0 405L21.5 397.3C43 389.7 86 374.3 128.8 372.3C171.7 370.3 214.3 381.7 257.2 380.5C300 379.3 343 365.7 385.8 366.7C428.7 367.7 471.3 383.3 514.2 391.3C557 399.3 600 399.7 642.8 397C685.7 394.3 728.3 388.7 771.2 388.2C814 387.7 857 392.3 878.5 394.7L900 397L900 0L878.5 0C857 0 814 0 771.2 0C728.3 0 685.7 0 642.8 0C600 0 557 0 514.2 0C471.3 0 428.7 0 385.8 0C343 0 300 0 257.2 0C214.3 0 171.7 0 128.8 0C86 0 43 0 21.5 0L0 0Z" fill="#f36567"></path><path d="M0 291L21.5 296.7C43 302.3 86 313.7 128.8 320C171.7 326.3 214.3 327.7 257.2 329.8C300 332 343 335 385.8 326.5C428.7 318 471.3 298 514.2 286.5C557 275 600 272 642.8 281.5C685.7 291 728.3 313 771.2 315.3C814 317.7 857 300.3 878.5 291.7L900 283L900 0L878.5 0C857 0 814 0 771.2 0C728.3 0 685.7 0 642.8 0C600 0 557 0 514.2 0C471.3 0 428.7 0 385.8 0C343 0 300 0 257.2 0C214.3 0 171.7 0 128.8 0C86 0 43 0 21.5 0L0 0Z" fill="#eb5967"></path><path d="M0 237L21.5 239.3C43 241.7 86 246.3 128.8 242C171.7 237.7 214.3 224.3 257.2 221C300 217.7 343 224.3 385.8 234C428.7 243.7 471.3 256.3 514.2 258.3C557 260.3 600 251.7 642.8 248.8C685.7 246 728.3 249 771.2 254C814 259 857 266 878.5 269.5L900 273L900 0L878.5 0C857 0 814 0 771.2 0C728.3 0 685.7 0 642.8 0C600 0 557 0 514.2 0C471.3 0 428.7 0 385.8 0C343 0 300 0 257.2 0C214.3 0 171.7 0 128.8 0C86 0 43 0 21.5 0L0 0Z" fill="#e34c67"></path><path d="M0 201L21.5 200.8C43 200.7 86 200.3 128.8 202C171.7 203.7 214.3 207.3 257.2 207.5C300 207.7 343 204.3 385.8 196.7C428.7 189 471.3 177 514.2 177.3C557 177.7 600 190.3 642.8 190.8C685.7 191.3 728.3 179.7 771.2 178.8C814 178 857 188 878.5 193L900 198L900 0L878.5 0C857 0 814 0 771.2 0C728.3 0 685.7 0 642.8 0C600 0 557 0 514.2 0C471.3 0 428.7 0 385.8 0C343 0 300 0 257.2 0C214.3 0 171.7 0 128.8 0C86 0 43 0 21.5 0L0 0Z" fill="#da3f67"></path><path d="M0 109L21.5 113.5C43 118 86 127 128.8 133C171.7 139 214.3 142 257.2 139.7C300 137.3 343 129.7 385.8 124.7C428.7 119.7 471.3 117.3 514.2 120.5C557 123.7 600 132.3 642.8 131.3C685.7 130.3 728.3 119.7 771.2 122.3C814 125 857 141 878.5 149L900 157L900 0L878.5 0C857 0 814 0 771.2 0C728.3 0 685.7 0 642.8 0C600 0 557 0 514.2 0C471.3 0 428.7 0 385.8 0C343 0 300 0 257.2 0C214.3 0 171.7 0 128.8 0C86 0 43 0 21.5 0L0 0Z" fill="#d03267"></path><path d="M0 63L21.5 64.2C43 65.3 86 67.7 128.8 72C171.7 76.3 214.3 82.7 257.2 80.3C300 78 343 67 385.8 64.8C428.7 62.7 471.3 69.3 514.2 70.2C557 71 600 66 642.8 66.7C685.7 67.3 728.3 73.7 771.2 75C814 76.3 857 72.7 878.5 70.8L900 69L900 0L878.5 0C857 0 814 0 771.2 0C728.3 0 685.7 0 642.8 0C600 0 557 0 514.2 0C471.3 0 428.7 0 385.8 0C343 0 300 0 257.2 0C214.3 0 171.7 0 128.8 0C86 0 43 0 21.5 0L0 0Z" fill="#c62368"></path></svg>